<svg width="14" height="19" viewBox="0 0 14 19" fill="none" xmlns="http://www.w3.org/2000/svg">
<path fill-rule="evenodd" clip-rule="evenodd" d="M1.59991 5.4C1.59991 2.41766 4.01758 0 6.99991 0C9.98225 0 12.3999 2.41766 12.3999 5.4V7.04C13.3128 7.2253 13.9999 8.03241 13.9999 9V17C13.9999 18.1046 13.1045 19 11.9999 19H1.99994C0.895369 19 -6.10352e-05 18.1046 -6.10352e-05 17V9C-6.10352e-05 8.03243 0.687031 7.22533 1.59991 7.04001V5.4ZM10.5999 5.4V7H3.39991V5.4C3.39991 3.41177 5.01169 1.8 6.99991 1.8C8.98814 1.8 10.5999 3.41178 10.5999 5.4ZM7.99994 11C7.99994 10.4477 7.55222 10 6.99994 10C6.44765 10 5.99994 10.4477 5.99994 11V15C5.99994 15.5523 6.44765 16 6.99994 16C7.55222 16 7.99994 15.5523 7.99994 15V11Z" fill="white"/>
</svg>
